# File created by Blade
# Date/Time:  Tue Sep 30 19:35:54 2014
#---------------------------------------------------------
:version 1.10
:name HOM
:units
  mass 1.0
  length 1.000000
  angle deg
:documentation
     Acclaim Skeleton File
:root
   axis xyz
   order TX TY TZ RX RY RZ
   position 0.000000 0.000000 0.000000
   orientation 0 0 0
:bonedata
   begin
      id 1
      name Spine_dum
      direction 0.000000 1.000000 0.000000
      length 3.241213
      axis 0.0 0.0 0.0 xyz
   end
   begin
      id 2
      name LeftUpLeg_dum
      direction 1.000000 0.000000 0.000000
      length 3.434019
      axis 0.0 0.0 0.0 xyz
   end
   begin
      id 3
      name RightUpLeg_dum
      direction -1.000000 0.000000 0.000000
      length 3.434019
      axis 0.0 0.0 0.0 xyz
   end
   begin
      id 4
      name Spine
      direction 0.000000 1.000000 0.000000
      length 0.000000
      axis 0.0 0.0 0.0 xyz
      dof rx ry rz
   end
   begin
      id 5
      name Spine_dum1
      direction 0.000000 1.000000 0.000000
      length 18.382958
      axis 0.0 0.0 0.0 xyz
   end
   begin
      id 6
      name Spine_dum2
      direction 0.000000 1.000000 0.000000
      length 12.828261
      axis 0.0 0.0 0.0 xyz
   end
   begin
      id 7
      name Spine_dum3
      direction 0.000000 1.000000 0.000000
      length 12.828261
      axis 0.0 0.0 0.0 xyz
   end
   begin
      id 8
      name Head
      direction 0.000000 1.000000 0.000000
      length 4.527550
      axis 0.0 0.0 0.0 xyz
      dof rx ry rz
   end
   begin
      id 9
      name LeftShoulder
      direction 1.000000 0.000000 0.000000
      length 7.748055
      axis 0.0 0.0 -90.0 xyz
      dof rx ry rz
   end
   begin
      id 10
      name LeftArm
      direction 1.000000 0.000000 0.000000
      length 10.635614
      axis 0.0 0.0 -90.0 xyz
      dof rx ry rz
   end
   begin
      id 11
      name LeftForeArm
      direction 1.000000 0.000000 0.000000
      length 8.346755
      axis 0.0 0.0 -90.0 xyz
      dof ry rz rx
   end
   begin
      id 12
      name LeftHand
      direction 0.000000 0.000000 0.000000
      length 0.000000
      axis 0.0 0.0 -90.0 xyz
      dof rx ry rz
   end
   begin
      id 13
      name LeftHand_dum1
      direction 0.000000 0.000000 0.000000
      length 0.000000
      axis 0.0 0.0 -90.0 xyz
   end
   begin
      id 14
      name LeftHand_dum2
      direction 1.000000 0.000000 0.000000
      length 3.937000
      axis 0.0 0.0 -90.0 xyz
   end
   begin
      id 15
      name LeftHandThumb1
      direction 0.000000 0.000000 1.000000
      length 3.937000
      axis 0.0 0.0 -90.0 xyz
      dof rx rz ry
   end
   begin
      id 16
      name RightShoulder
      direction -1.000000 0.000000 0.000000
      length 7.748055
      axis 0.0 0.0 90.0 xyz
      dof rx ry rz
   end
   begin
      id 17
      name RightArm
      direction -1.000000 0.000000 0.000000
      length 10.635614
      axis 0.0 0.0 90.0 xyz
      dof rx ry rz
   end
   begin
      id 18
      name RightForeArm
      direction -1.000000 0.000000 0.000000
      length 8.346755
      axis 0.0 0.0 90.0 xyz
      dof ry rz rx
   end
   begin
      id 19
      name RightHand
      direction 0.000000 0.000000 0.000000
      length 0.000000
      axis 0.0 0.0 90.0 xyz
      dof rx ry rz
   end
   begin
      id 20
      name RightHand_dum1
      direction 0.000000 0.000000 0.000000
      length 0.000000
      axis 0.0 0.0 90.0 xyz
   end
   begin
      id 21
      name RightHand_dum2
      direction -1.000000 0.000000 0.000000
      length 3.937000
      axis 0.0 0.0 90.0 xyz
   end
   begin
      id 22
      name RightHandThumb1
      direction 0.000000 0.000000 1.000000
      length 3.937000
      axis 0.0 0.0 90.0 xyz
      dof rx rz ry
   end
   begin
      id 23
      name LeftUpLeg
      direction 0.000000 -1.000000 0.000000
      length 15.713025
      axis 0.0 0.0 0.0 xyz
      dof rx ry rz
   end
   begin
      id 24
      name LeftLeg
      direction 0.000000 -1.000000 0.000000
      length 14.435119
      axis 0.0 0.0 0.0 xyz
      dof rx ry rz
   end
   begin
      id 25
      name LeftFoot
      direction 0.000000 -0.258819 0.965926
      length 4.938895
      axis 15.0 0.0 0.0 xyz
      dof rx ry rz
   end
   begin
      id 26
      name LeftToeBase
      direction 0.000000 0.000000 1.000000
      length 2.952750
      axis 0.0 0.0 0.0 xyz
      dof rx ry rz
   end
   begin
      id 27
      name RightUpLeg
      direction 0.000000 -1.000000 0.000000
      length 15.713025
      axis 0.0 0.0 0.0 xyz
      dof rx ry rz
   end
   begin
      id 28
      name RightLeg
      direction 0.000000 -1.000000 0.000000
      length 14.435119
      axis 0.0 0.0 0.0 xyz
      dof rx ry rz
   end
   begin
      id 29
      name RightFoot
      direction 0.000000 -0.258819 0.965926
      length 4.938895
      axis 15.0 0.0 0.0 xyz
      dof rx ry rz
   end
   begin
      id 30
      name RightToeBase
      direction 0.000000 0.000000 1.000000
      length 2.952750
      axis 0.0 0.0 0.0 xyz
      dof rx ry rz
   end
:hierarchy
   begin
      root Spine_dum LeftUpLeg_dum RightUpLeg_dum
      Spine_dum Spine
      LeftUpLeg_dum LeftUpLeg
      RightUpLeg_dum RightUpLeg
      Spine Spine_dum1 Spine_dum2 Spine_dum3
      Spine_dum1 Head
      Spine_dum2 LeftShoulder
      Spine_dum3 RightShoulder
      LeftShoulder LeftArm
      LeftArm LeftForeArm
      LeftForeArm LeftHand
      LeftHand LeftHand_dum1 LeftHand_dum2
      LeftHand_dum1 LeftHandThumb1
      RightShoulder RightArm
      RightArm RightForeArm
      RightForeArm RightHand
      RightHand RightHand_dum1 RightHand_dum2
      RightHand_dum1 RightHandThumb1
      LeftUpLeg LeftLeg
      LeftLeg LeftFoot
      LeftFoot LeftToeBase
      RightUpLeg RightLeg
      RightLeg RightFoot
      RightFoot RightToeBase
   end

# File created by Blade
# Date/Time:  Tue Sep 23 19:15:59 2014
# Frame Rate: 120.000 fps
#------------------------------------------------------
:FULLY-SPECIFIED
:DEGREES
1
root 0.704477 32.445555 -1.076106 34.605924 3.112481 0.020967
Spine -39.881128 -5.646373 4.314647
Head 4.211548 -4.547395 -5.940315
LeftShoulder -21.451229 43.419816 22.576286
LeftArm 54.022003 -44.718234 -62.667311
LeftForeArm 90.922885 -0.000000 -15.267647
LeftHand -3.945940 -0.000000 60.749614
LeftHandThumb1 -26.253704 0.000000 33.147579
RightShoulder -19.145729 -40.388311 -23.931180
RightArm 44.965529 29.505642 47.670616
RightForeArm 16.351106 0.000000 -4.182087
RightHand 12.678646 -0.000000 5.185955
RightHandThumb1 -24.326973 -0.000000 -32.862282
LeftUpLeg -28.492029 0.389231 -0.036309
LeftLeg -0.475425 -0.000000 0.000000
LeftFoot -6.216578 -1.686921 -1.457053
LeftToeBase 0.859425 -0.000000 -0.000000
RightUpLeg -26.959863 -4.635893 4.986496
RightLeg -3.389191 -0.000000 0.000000
RightFoot -7.635120 -3.015331 13.108323
RightToeBase 14.654603 -0.000000 -0.000000
2
root 0.709753 32.446100 -1.084633 34.599892 3.066430 0.016475
Spine -39.863329 -5.652390 4.345533
Head 4.188243 -4.537239 -5.953449
LeftShoulder -21.476063 43.449011 22.402931
LeftArm 54.232407 -44.507221 -63.034586
LeftForeArm 91.006039 -0.000000 -15.343548
LeftHand -3.720560 -0.000000 60.589742
LeftHandThumb1 -26.253704 0.000000 33.147579
RightShoulder -19.070666 -40.407728 -23.869190
RightArm 45.024923 29.385370 47.773961
RightForeArm 16.345685 -0.000000 -4.199066
RightHand 12.651565 0.000000 5.260728
RightHandThumb1 -24.326973 -0.000000 -32.862282
LeftUpLeg -28.477838 0.418901 -0.063309
LeftLeg -0.511598 -0.000000 0.000000
LeftFoot -6.195852 -1.678653 -1.431600
LeftToeBase 0.853080 -0.000000 -0.000000
RightUpLeg -26.950751 -4.645321 4.978286
RightLeg -3.434470 -0.000000 0.000000
RightFoot -7.574320 -2.966858 13.103697
RightToeBase 14.626227 -0.000000 -0.000000
3
root 0.713351 32.446660 -1.091899 34.584569 3.002559 0.002985
Spine -39.840040 -5.633383 4.352126
Head 4.179893 -4.552174 -5.928568
LeftShoulder -21.502662 43.475590 22.262659
LeftArm 54.521281 -44.279724 -63.522683
LeftForeArm 90.771502 -0.000000 -15.393859
LeftHand -3.298521 -0.000000 60.358991
LeftHandThumb1 -26.253704 0.000000 33.147579
RightShoulder -18.991351 -40.427501 -23.793117
RightArm 45.094251 29.284105 47.911647
RightForeArm 16.258122 -0.000000 -4.247440
RightHand 12.541025 -0.000000 5.359626
RightHandThumb1 -24.326973 -0.000000 -32.862282
LeftUpLeg -28.438776 0.447390 -0.074530
LeftLeg -0.569241 -0.000000 0.000000
LeftFoot -6.165747 -1.681781 -1.472425
LeftToeBase 0.870803 -0.000000 -0.000000
RightUpLeg -26.915387 -4.582209 4.941802
RightLeg -3.507957 -0.000000 0.000000
RightFoot -7.511038 -2.984959 13.139917
RightToeBase 14.644924 -0.000000 -0.000000
4
root 0.721001 32.447661 -1.100596 34.573339 2.936515 0.006424
Spine -39.816743 -5.623682 4.358562
Head 4.174391 -4.553338 -5.938726
LeftShoulder -21.508155 43.482304 22.134382
LeftArm 54.710818 -44.011233 -63.956884
LeftForeArm 90.421753 0.000000 -15.427519
LeftHand -2.791245 -0.000000 60.143114
LeftHandThumb1 -26.253704 0.000000 33.147579
RightShoulder -18.910606 -40.480281 -23.723270
RightArm 45.158887 29.080799 47.971187
RightForeArm 16.339927 -0.000000 -4.315680
RightHand 12.478554 -0.000000 5.320984
RightHandThumb1 -24.326973 -0.000000 -32.862282
LeftUpLeg -28.418704 0.489599 -0.120362
LeftLeg -0.603339 -0.000000 0.000000
LeftFoot -6.139589 -1.687518 -1.490822
LeftToeBase 0.889060 -0.000000 -0.000000
RightUpLeg -26.903978 -4.573494 4.907380
RightLeg -3.552533 -0.000000 0.000000
RightFoot -7.456713 -2.951632 13.126955
RightToeBase 14.619356 -0.000000 -0.000000
